<svg width="758" height="690" class="scatterD3" id="scatterD3-svg-explor_ind" xmlns="http://www.w3.org/2000/svg" version="1.1"><style>.scatterD3 {font: 11px Open Sans, Droid Sans, Helvetica, Verdana, sans-serif;}.scatterD3 .axis line, .axis path { stroke: #000; fill: none; shape-rendering: CrispEdges;} .scatterD3 .axis .tick line { stroke: #ddd;} .scatterD3 .axis text { fill: #000; }</style><g class="root" transform="translate(30,5)" width="568" height="568" style="cursor: move;"><rect width="568" height="568" style="fill: rgb(255, 255, 255);"></rect><g class="x axis" transform="translate(0,568)" fill="none" font-size="10" font-family="sans-serif" text-anchor="middle" style="font-size: 100%;"><path class="domain" stroke="#000" d="M0.5,-568V0.5H568.5V-568"></path><g class="tick" opacity="1" transform="translate(38.23903247452468,0)"><line stroke="#000" y2="-568" x1="0.5" x2="0.5"></line><text fill="#000" y="3" x="0.5" dy="0.71em">0</text></g><g class="tick" opacity="1" transform="translate(108.09645590930393,0)"><line stroke="#000" y2="-568" x1="0.5" x2="0.5"></line><text fill="#000" y="3" x="0.5" dy="0.71em">2</text></g><g class="tick" opacity="1" transform="translate(177.9538793440832,0)"><line stroke="#000" y2="-568" x1="0.5" x2="0.5"></line><text fill="#000" y="3" x="0.5" dy="0.71em">4</text></g><g class="tick" opacity="1" transform="translate(247.81130277886245,0)"><line stroke="#000" y2="-568" x1="0.5" x2="0.5"></line><text fill="#000" y="3" x="0.5" dy="0.71em">6</text></g><g class="tick" opacity="1" transform="translate(317.6687262136417,0)"><line stroke="#000" y2="-568" x1="0.5" x2="0.5"></line><text fill="#000" y="3" x="0.5" dy="0.71em">8</text></g><g class="tick" opacity="1" transform="translate(387.5261496484209,0)"><line stroke="#000" y2="-568" x1="0.5" x2="0.5"></line><text fill="#000" y="3" x="0.5" dy="0.71em">10</text></g><g class="tick" opacity="1" transform="translate(457.3835730832002,0)"><line stroke="#000" y2="-568" x1="0.5" x2="0.5"></line><text fill="#000" y="3" x="0.5" dy="0.71em">12</text></g><g class="tick" opacity="1" transform="translate(527.2409965179794,0)"><line stroke="#000" y2="-568" x1="0.5" x2="0.5"></line><text fill="#000" y="3" x="0.5" dy="0.71em">14</text></g></g><g class="y axis" fill="none" font-size="10" font-family="sans-serif" text-anchor="end" style="font-size: 100%;"><path class="domain" stroke="#000" d="M568,568.5H0.5V0.5H568"></path><g class="tick" opacity="1" transform="translate(0,544.6300181569912)"><line stroke="#000" x2="568" y1="0.5" y2="0.5"></line><text fill="#000" x="-3" y="0.5" dy="0.32em">-4</text></g><g class="tick" opacity="1" transform="translate(0,474.772594722212)"><line stroke="#000" x2="568" y1="0.5" y2="0.5"></line><text fill="#000" x="-3" y="0.5" dy="0.32em">-2</text></g><g class="tick" opacity="1" transform="translate(0,404.9151712874327)"><line stroke="#000" x2="568" y1="0.5" y2="0.5"></line><text fill="#000" x="-3" y="0.5" dy="0.32em">0</text></g><g class="tick" opacity="1" transform="translate(0,335.0577478526535)"><line stroke="#000" x2="568" y1="0.5" y2="0.5"></line><text fill="#000" x="-3" y="0.5" dy="0.32em">2</text></g><g class="tick" opacity="1" transform="translate(0,265.20032441787424)"><line stroke="#000" x2="568" y1="0.5" y2="0.5"></line><text fill="#000" x="-3" y="0.5" dy="0.32em">4</text></g><g class="tick" opacity="1" transform="translate(0,195.34290098309498)"><line stroke="#000" x2="568" y1="0.5" y2="0.5"></line><text fill="#000" x="-3" y="0.5" dy="0.32em">6</text></g><g class="tick" opacity="1" transform="translate(0,125.48547754831571)"><line stroke="#000" x2="568" y1="0.5" y2="0.5"></line><text fill="#000" x="-3" y="0.5" dy="0.32em">8</text></g><g class="tick" opacity="1" transform="translate(0,55.62805411353645)"><line stroke="#000" x2="568" y1="0.5" y2="0.5"></line><text fill="#000" x="-3" y="0.5" dy="0.32em">10</text></g></g><text class="x-axis-label" transform="translate(563,562)" style="text-anchor: end; font-size: 100%;">Axis 1 (56.07%)</text><text class="y-axis-label" transform="translate(5,6) rotate(-90)" dy=".71em" style="text-anchor: end;">Axis 2 (24.85%)</text><svg class="chart-body" width="568" height="568"><path class="line" d="M0,404.9151712874327L568,404.9151712874327" style="stroke-width: 1px; stroke: rgb(0, 0, 0); stroke-dasharray: 5px;"></path><path class="line" d="M38.23903247452468,0L38.23903247452468,568" style="stroke-width: 1px; stroke: rgb(0, 0, 0); stroke-dasharray: 5px;"></path><path transform="translate(29.57671196861205,404.0768822062154)" d="M3.431831258788849,0A3.431831258788849,3.431831258788849,0,1,1,-3.431831258788849,0A3.431831258788849,3.431831258788849,0,1,1,3.431831258788849,0" class="dot symbol symbol-c color color-cColor" style="fill: rgb(31, 119, 180); opacity: 1;"></path><path transform="translate(27.376203130416506,408.5128285943239)" d="M3.431831258788849,0A3.431831258788849,3.431831258788849,0,1,1,-3.431831258788849,0A3.431831258788849,3.431831258788849,0,1,1,3.431831258788849,0" class="dot symbol symbol-c color color-cColor" style="fill: rgb(31, 119, 180); opacity: 1;"></path><path transform="translate(28.144634788199077,424.4053924257361)" d="M3.431831258788849,0A3.431831258788849,3.431831258788849,0,1,1,-3.431831258788849,0A3.431831258788849,3.431831258788849,0,1,1,3.431831258788849,0" class="dot symbol symbol-c color color-cColor" style="fill: rgb(31, 119, 180); opacity: 1;"></path><path transform="translate(30.310214914677235,422.9383865336058)" d="M3.431831258788849,0A3.431831258788849,3.431831258788849,0,1,1,-3.431831258788849,0A3.431831258788849,3.431831258788849,0,1,1,3.431831258788849,0" class="dot symbol symbol-c color color-cColor" style="fill: rgb(31, 119, 180); opacity: 1;"></path><path transform="translate(28.52885061709036,424.5451072726057)" d="M3.431831258788849,0A3.431831258788849,3.431831258788849,0,1,1,-3.431831258788849,0A3.431831258788849,3.431831258788849,0,1,1,3.431831258788849,0" class="dot symbol symbol-c color color-cColor" style="fill: rgb(31, 119, 180); opacity: 1;"></path><path transform="translate(86.16122495078325,431.04184765204013)" d="M3.431831258788849,0A3.431831258788849,3.431831258788849,0,1,1,-3.431831258788849,0A3.431831258788849,3.431831258788849,0,1,1,3.431831258788849,0" class="dot symbol symbol-c color color-cColor" style="fill: rgb(31, 119, 180); opacity: 1;"></path><path transform="translate(26.74748631950349,409.59561865756297)" d="M3.431831258788849,0A3.431831258788849,3.431831258788849,0,1,1,-3.431831258788849,0A3.431831258788849,3.431831258788849,0,1,1,3.431831258788849,0" class="dot symbol symbol-c color color-cColor" style="fill: rgb(31, 119, 180); opacity: 1;"></path><path transform="translate(26.0489120851557,410.6085512973673)" d="M3.431831258788849,0A3.431831258788849,3.431831258788849,0,1,1,-3.431831258788849,0A3.431831258788849,3.431831258788849,0,1,1,3.431831258788849,0" class="dot symbol symbol-c color color-cColor" style="fill: rgb(31, 119, 180); opacity: 1;"></path><path transform="translate(29.262353563155546,408.96690184664993)" d="M3.431831258788849,0A3.431831258788849,3.431831258788849,0,1,1,-3.431831258788849,0A3.431831258788849,3.431831258788849,0,1,1,3.431831258788849,0" class="dot symbol symbol-c color color-cColor" style="fill: rgb(31, 119, 180); opacity: 1;"></path><path transform="translate(23.079971589177582,412.35498688323673)" d="M3.431831258788849,0A3.431831258788849,3.431831258788849,0,1,1,-3.431831258788849,0A3.431831258788849,3.431831258788849,0,1,1,3.431831258788849,0" class="dot symbol symbol-c color color-cColor" style="fill: rgb(31, 119, 180); opacity: 1;"></path><path transform="translate(24.82640717504706,416.26700259558436)" d="M3.431831258788849,0A3.431831258788849,3.431831258788849,0,1,1,-3.431831258788849,0A3.431831258788849,3.431831258788849,0,1,1,3.431831258788849,0" class="dot symbol symbol-c color color-cColor" style="fill: rgb(31, 119, 180); opacity: 1;"></path><path transform="translate(23.079971589177582,422.2048835875406)" d="M3.431831258788849,0A3.431831258788849,3.431831258788849,0,1,1,-3.431831258788849,0A3.431831258788849,3.431831258788849,0,1,1,3.431831258788849,0" class="dot symbol symbol-c color color-cColor" style="fill: rgb(31, 119, 180); opacity: 1;"></path><path transform="translate(27.411131842133894,417.94358075801904)" d="M3.431831258788849,0A3.431831258788849,3.431831258788849,0,1,1,-3.431831258788849,0A3.431831258788849,3.431831258788849,0,1,1,3.431831258788849,0" class="dot symbol symbol-c color color-cColor" style="fill: rgb(31, 119, 180); opacity: 1;"></path><path transform="translate(30.58964460841635,399.78065066497646)" d="M3.431831258788849,0A3.431831258788849,3.431831258788849,0,1,1,-3.431831258788849,0A3.431831258788849,3.431831258788849,0,1,1,3.431831258788849,0" class="dot symbol symbol-c color color-cColor" style="fill: rgb(31, 119, 180); opacity: 1;"></path><path transform="translate(29.297282274872934,411.1674106848455)" d="M3.431831258788849,0A3.431831258788849,3.431831258788849,0,1,1,-3.431831258788849,0A3.431831258788849,3.431831258788849,0,1,1,3.431831258788849,0" class="dot symbol symbol-c color color-cColor" style="fill: rgb(31, 119, 180); opacity: 1;"></path><path transform="translate(25.245551715655736,410.503765162215)" d="M3.431831258788849,0A3.431831258788849,3.431831258788849,0,1,1,-3.431831258788849,0A3.431831258788849,3.431831258788849,0,1,1,3.431831258788849,0" class="dot symbol symbol-c color color-cColor" style="fill: rgb(31, 119, 180); opacity: 1;"></path><path transform="translate(26.398199202329597,419.8297311907581)" d="M3.431831258788849,0A3.431831258788849,3.431831258788849,0,1,1,-3.431831258788849,0A3.431831258788849,3.431831258788849,0,1,1,3.431831258788849,0" class="dot symbol symbol-c color color-cColor" style="fill: rgb(31, 119, 180); opacity: 1;"></path><path transform="translate(26.81734374293827,420.5632341368233)" d="M3.431831258788849,0A3.431831258788849,3.431831258788849,0,1,1,-3.431831258788849,0A3.431831258788849,3.431831258788849,0,1,1,3.431831258788849,0" class="dot symbol symbol-c color color-cColor" style="fill: rgb(31, 119, 180); opacity: 1;"></path><path transform="translate(84.51957550006594,412.32005817151935)" d="M3.431831258788849,0A3.431831258788849,3.431831258788849,0,1,1,-3.431831258788849,0A3.431831258788849,3.431831258788849,0,1,1,3.431831258788849,0" class="dot symbol symbol-c color color-cColor" style="fill: rgb(31, 119, 180); opacity: 1;"></path><path transform="translate(24.512048769590557,404.4261693233893)" d="M3.431831258788849,0A3.431831258788849,3.431831258788849,0,1,1,-3.431831258788849,0A3.431831258788849,3.431831258788849,0,1,1,3.431831258788849,0" class="dot symbol symbol-c color color-cCore" style="fill: rgb(214, 39, 40); opacity: 1;"></path><path transform="translate(22.24168250796023,425.13889537180137)" d="M3.431831258788849,0A3.431831258788849,3.431831258788849,0,1,1,-3.431831258788849,0A3.431831258788849,3.431831258788849,0,1,1,3.431831258788849,0" class="dot symbol symbol-c color color-cCore" style="fill: rgb(214, 39, 40); opacity: 1;"></path><path transform="translate(25.490052697677466,418.0832956048886)" d="M3.431831258788849,0A3.431831258788849,3.431831258788849,0,1,1,-3.431831258788849,0A3.431831258788849,3.431831258788849,0,1,1,3.431831258788849,0" class="dot symbol symbol-c color color-cCore" style="fill: rgb(214, 39, 40); opacity: 1;"></path><path transform="translate(57.240251648784636,337.18839926741424)" d="M3.431831258788849,0A3.431831258788849,3.431831258788849,0,1,1,-3.431831258788849,0A3.431831258788849,3.431831258788849,0,1,1,3.431831258788849,0" class="dot symbol symbol-c color color-cCore" style="fill: rgb(214, 39, 40); opacity: 1;"></path><path transform="translate(28.354207058503416,399.25671998921564)" d="M3.431831258788849,0A3.431831258788849,3.431831258788849,0,1,1,-3.431831258788849,0A3.431831258788849,3.431831258788849,0,1,1,3.431831258788849,0" class="dot symbol symbol-c color color-cCore" style="fill: rgb(214, 39, 40); opacity: 1;"></path><path transform="translate(34.920804861372666,368.4146675427606)" d="M3.431831258788849,0A3.431831258788849,3.431831258788849,0,1,1,-3.431831258788849,0A3.431831258788849,3.431831258788849,0,1,1,3.431831258788849,0" class="dot symbol symbol-c color color-cCore" style="fill: rgb(214, 39, 40); opacity: 1;"></path><path transform="translate(21.508179561895048,416.1272877487148)" d="M3.431831258788849,0A3.431831258788849,3.431831258788849,0,1,1,-3.431831258788849,0A3.431831258788849,3.431831258788849,0,1,1,3.431831258788849,0" class="dot symbol symbol-c color color-cCore" style="fill: rgb(214, 39, 40); opacity: 1;"></path><path transform="translate(27.900133806177347,425.41832506554044)" d="M3.431831258788849,0A3.431831258788849,3.431831258788849,0,1,1,-3.431831258788849,0A3.431831258788849,3.431831258788849,0,1,1,3.431831258788849,0" class="dot symbol symbol-c color color-cCore" style="fill: rgb(214, 39, 40); opacity: 1;"></path><path transform="translate(25.14076558050357,368.0304517138693)" d="M3.431831258788849,0A3.431831258788849,3.431831258788849,0,1,1,-3.431831258788849,0A3.431831258788849,3.431831258788849,0,1,1,3.431831258788849,0" class="dot symbol symbol-c color color-cCore" style="fill: rgb(214, 39, 40); opacity: 1;"></path><path transform="translate(49.695649917828476,433.80121587771396)" d="M3.431831258788849,0A3.431831258788849,3.431831258788849,0,1,1,-3.431831258788849,0A3.431831258788849,3.431831258788849,0,1,1,3.431831258788849,0" class="dot symbol symbol-c color color-cCore" style="fill: rgb(214, 39, 40); opacity: 1;"></path><path transform="translate(47.739642061654656,220.98057538365896)" d="M3.431831258788849,0A3.431831258788849,3.431831258788849,0,1,1,-3.431831258788849,0A3.431831258788849,3.431831258788849,0,1,1,3.431831258788849,0" class="dot symbol symbol-c color color-cCore" style="fill: rgb(214, 39, 40); opacity: 1;"></path><path transform="translate(45.53913322345911,204.21479375931193)" d="M3.431831258788849,0A3.431831258788849,3.431831258788849,0,1,1,-3.431831258788849,0A3.431831258788849,3.431831258788849,0,1,1,3.431831258788849,0" class="dot symbol symbol-c color color-cCore" style="fill: rgb(214, 39, 40); opacity: 1;"></path><path transform="translate(54.09666759421956,411.4119116668672)" d="M3.431831258788849,0A3.431831258788849,3.431831258788849,0,1,1,-3.431831258788849,0A3.431831258788849,3.431831258788849,0,1,1,3.431831258788849,0" class="dot symbol symbol-c color color-cCore" style="fill: rgb(214, 39, 40); opacity: 1;"></path><path transform="translate(25.524981409394854,402.155803061759)" d="M3.431831258788849,0A3.431831258788849,3.431831258788849,0,1,1,-3.431831258788849,0A3.431831258788849,3.431831258788849,0,1,1,3.431831258788849,0" class="dot symbol symbol-c color color-cCore" style="fill: rgb(214, 39, 40); opacity: 1;"></path><path transform="translate(25.10583686878618,429.67962789506197)" d="M3.431831258788849,0A3.431831258788849,3.431831258788849,0,1,1,-3.431831258788849,0A3.431831258788849,3.431831258788849,0,1,1,3.431831258788849,0" class="dot symbol symbol-c color color-cCore" style="fill: rgb(214, 39, 40); opacity: 1;"></path><path transform="translate(24.023046805547096,410.57362258564984)" d="M3.431831258788849,0A3.431831258788849,3.431831258788849,0,1,1,-3.431831258788849,0A3.431831258788849,3.431831258788849,0,1,1,3.431831258788849,0" class="dot symbol symbol-c color color-cCore" style="fill: rgb(214, 39, 40); opacity: 1;"></path><path transform="translate(30.170500067807676,411.0626245496933)" d="M3.431831258788849,0A3.431831258788849,3.431831258788849,0,1,1,-3.431831258788849,0A3.431831258788849,3.431831258788849,0,1,1,3.431831258788849,0" class="dot symbol symbol-c color color-cCore" style="fill: rgb(214, 39, 40); opacity: 1;"></path><path transform="translate(24.09290422898188,411.97077105434545)" d="M3.431831258788849,0A3.431831258788849,3.431831258788849,0,1,1,-3.431831258788849,0A3.431831258788849,3.431831258788849,0,1,1,3.431831258788849,0" class="dot symbol symbol-c color color-cCore" style="fill: rgb(214, 39, 40); opacity: 1;"></path><path transform="translate(22.695755760286293,343.09135154765306)" d="M3.431831258788849,0A3.431831258788849,3.431831258788849,0,1,1,-3.431831258788849,0A3.431831258788849,3.431831258788849,0,1,1,3.431831258788849,0" class="dot symbol symbol-c color color-cCore" style="fill: rgb(214, 39, 40); opacity: 1;"></path><path transform="translate(26.0489120851557,429.85427145364895)" d="M3.431831258788849,0A3.431831258788849,3.431831258788849,0,1,1,-3.431831258788849,0A3.431831258788849,3.431831258788849,0,1,1,3.431831258788849,0" class="dot symbol symbol-c color color-cCore" style="fill: rgb(214, 39, 40); opacity: 1;"></path><path transform="translate(23.603902264938423,399.3964348360852)" d="M3.431831258788849,0A3.431831258788849,3.431831258788849,0,1,1,-3.431831258788849,0A3.431831258788849,3.431831258788849,0,1,1,3.431831258788849,0" class="dot symbol symbol-c color color-cCore" style="fill: rgb(214, 39, 40); opacity: 1;"></path><path transform="translate(24.197690364134047,386.7871699061075)" d="M3.431831258788849,0A3.431831258788849,3.431831258788849,0,1,1,-3.431831258788849,0A3.431831258788849,3.431831258788849,0,1,1,3.431831258788849,0" class="dot symbol symbol-c color color-cCore" style="fill: rgb(214, 39, 40); opacity: 1;"></path><path transform="translate(23.045042877460187,407.0458227021935)" d="M3.431831258788849,0A3.431831258788849,3.431831258788849,0,1,1,-3.431831258788849,0A3.431831258788849,3.431831258788849,0,1,1,3.431831258788849,0" class="dot symbol symbol-c color color-cCore" style="fill: rgb(214, 39, 40); opacity: 1;"></path><path transform="translate(33.41887025752491,434.25528913004)" d="M3.431831258788849,0A3.431831258788849,3.431831258788849,0,1,1,-3.431831258788849,0A3.431831258788849,3.431831258788849,0,1,1,3.431831258788849,0" class="dot symbol symbol-c color color-cCore" style="fill: rgb(214, 39, 40); opacity: 1;"></path><path transform="translate(27.201559571829552,405.8582465038022)" d="M3.431831258788849,0A3.431831258788849,3.431831258788849,0,1,1,-3.431831258788849,0A3.431831258788849,3.431831258788849,0,1,1,3.431831258788849,0" class="dot symbol symbol-c color color-cCore" style="fill: rgb(214, 39, 40); opacity: 1;"></path><path transform="translate(26.991987301525217,417.7689371994321)" d="M3.431831258788849,0A3.431831258788849,3.431831258788849,0,1,1,-3.431831258788849,0A3.431831258788849,3.431831258788849,0,1,1,3.431831258788849,0" class="dot symbol symbol-c color color-cCore" style="fill: rgb(214, 39, 40); opacity: 1;"></path><path transform="translate(37.68017308704644,429.67962789506197)" d="M3.431831258788849,0A3.431831258788849,3.431831258788849,0,1,1,-3.431831258788849,0A3.431831258788849,3.431831258788849,0,1,1,3.431831258788849,0" class="dot symbol symbol-c color color-cCore" style="fill: rgb(214, 39, 40); opacity: 1;"></path><path transform="translate(26.57284276091654,417.34979265882345)" d="M3.431831258788849,0A3.431831258788849,3.431831258788849,0,1,1,-3.431831258788849,0A3.431831258788849,3.431831258788849,0,1,1,3.431831258788849,0" class="dot symbol symbol-c color color-cCore" style="fill: rgb(214, 39, 40); opacity: 1;"></path><path transform="translate(25.594838832829634,420.3187331548016)" d="M3.431831258788849,0A3.431831258788849,3.431831258788849,0,1,1,-3.431831258788849,0A3.431831258788849,3.431831258788849,0,1,1,3.431831258788849,0" class="dot symbol symbol-c color color-cCore" style="fill: rgb(214, 39, 40); opacity: 1;"></path><path transform="translate(25.490052697677466,411.79612749575847)" d="M3.431831258788849,0A3.431831258788849,3.431831258788849,0,1,1,-3.431831258788849,0A3.431831258788849,3.431831258788849,0,1,1,3.431831258788849,0" class="dot symbol symbol-c color color-cCore" style="fill: rgb(214, 39, 40); opacity: 1;"></path><path transform="translate(28.947995157699037,413.1932759644541)" d="M3.431831258788849,0A3.431831258788849,3.431831258788849,0,1,1,-3.431831258788849,0A3.431831258788849,3.431831258788849,0,1,1,3.431831258788849,0" class="dot symbol symbol-c color color-cCore" style="fill: rgb(214, 39, 40); opacity: 1;"></path><path transform="translate(42.98933726808967,434.88400594095305)" d="M3.431831258788849,0A3.431831258788849,3.431831258788849,0,1,1,-3.431831258788849,0A3.431831258788849,3.431831258788849,0,1,1,3.431831258788849,0" class="dot symbol symbol-c color color-cCore" style="fill: rgb(214, 39, 40); opacity: 1;"></path><path transform="translate(23.918260670394933,416.3368600190191)" d="M3.431831258788849,0A3.431831258788849,3.431831258788849,0,1,1,-3.431831258788849,0A3.431831258788849,3.431831258788849,0,1,1,3.431831258788849,0" class="dot symbol symbol-c color color-cCore" style="fill: rgb(214, 39, 40); opacity: 1;"></path><path transform="translate(25.629767544547022,415.91771547841046)" d="M3.431831258788849,0A3.431831258788849,3.431831258788849,0,1,1,-3.431831258788849,0A3.431831258788849,3.431831258788849,0,1,1,3.431831258788849,0" class="dot symbol symbol-c color color-cCore" style="fill: rgb(214, 39, 40); opacity: 1;"></path><path transform="translate(24.86133588676445,410.71333743251944)" d="M3.431831258788849,0A3.431831258788849,3.431831258788849,0,1,1,-3.431831258788849,0A3.431831258788849,3.431831258788849,0,1,1,3.431831258788849,0" class="dot symbol symbol-c color color-cCore" style="fill: rgb(214, 39, 40); opacity: 1;"></path><path transform="translate(25.00105073363401,417.8038659111495)" d="M3.431831258788849,0A3.431831258788849,3.431831258788849,0,1,1,-3.431831258788849,0A3.431831258788849,3.431831258788849,0,1,1,3.431831258788849,0" class="dot symbol symbol-c color color-cCore" style="fill: rgb(214, 39, 40); opacity: 1;"></path><path transform="translate(27.166630860112168,411.65641264888893)" d="M3.431831258788849,0A3.431831258788849,3.431831258788849,0,1,1,-3.431831258788849,0A3.431831258788849,3.431831258788849,0,1,1,3.431831258788849,0" class="dot symbol symbol-c color color-cCore" style="fill: rgb(214, 39, 40); opacity: 1;"></path><path transform="translate(30.205428779525064,413.8918501988019)" d="M3.431831258788849,0A3.431831258788849,3.431831258788849,0,1,1,-3.431831258788849,0A3.431831258788849,3.431831258788849,0,1,1,3.431831258788849,0" class="dot symbol symbol-c color color-cCore" style="fill: rgb(214, 39, 40); opacity: 1;"></path><path transform="translate(22.17182508452545,421.89052518208405)" d="M3.431831258788849,0A3.431831258788849,3.431831258788849,0,1,1,-3.431831258788849,0A3.431831258788849,3.431831258788849,0,1,1,3.431831258788849,0" class="dot symbol symbol-c color color-cCore" style="fill: rgb(214, 39, 40); opacity: 1;"></path><path transform="translate(31.986793077111933,432.0547802918445)" d="M3.431831258788849,0A3.431831258788849,3.431831258788849,0,1,1,-3.431831258788849,0A3.431831258788849,3.431831258788849,0,1,1,3.431831258788849,0" class="dot symbol symbol-c color color-cCore" style="fill: rgb(214, 39, 40); opacity: 1;"></path><path transform="translate(26.398199202329597,397.8945002322374)" d="M3.431831258788849,0A3.431831258788849,3.431831258788849,0,1,1,-3.431831258788849,0A3.431831258788849,3.431831258788849,0,1,1,3.431831258788849,0" class="dot symbol symbol-c color color-cCore" style="fill: rgb(214, 39, 40); opacity: 1;"></path><path transform="translate(26.468056625764376,411.9009136309106)" d="M3.431831258788849,0A3.431831258788849,3.431831258788849,0,1,1,-3.431831258788849,0A3.431831258788849,3.431831258788849,0,1,1,3.431831258788849,0" class="dot symbol symbol-c color color-cCore" style="fill: rgb(214, 39, 40); opacity: 1;"></path><path transform="translate(26.607771472633935,421.47138064147543)" d="M3.431831258788849,0A3.431831258788849,3.431831258788849,0,1,1,-3.431831258788849,0A3.431831258788849,3.431831258788849,0,1,1,3.431831258788849,0" class="dot symbol symbol-c color color-cCore" style="fill: rgb(214, 39, 40); opacity: 1;"></path><path transform="translate(26.293413067177422,413.8219927753671)" d="M3.431831258788849,0A3.431831258788849,3.431831258788849,0,1,1,-3.431831258788849,0A3.431831258788849,3.431831258788849,0,1,1,3.431831258788849,0" class="dot symbol symbol-c color color-cCore" style="fill: rgb(214, 39, 40); opacity: 1;"></path><path transform="translate(21.29860729159071,418.9565133978234)" d="M3.431831258788849,0A3.431831258788849,3.431831258788849,0,1,1,-3.431831258788849,0A3.431831258788849,3.431831258788849,0,1,1,3.431831258788849,0" class="dot symbol symbol-c color color-cCore" style="fill: rgb(214, 39, 40); opacity: 1;"></path><path transform="translate(28.77335159911209,412.21527203636714)" d="M3.431831258788849,0A3.431831258788849,3.431831258788849,0,1,1,-3.431831258788849,0A3.431831258788849,3.431831258788849,0,1,1,3.431831258788849,0" class="dot symbol symbol-c color color-cCore" style="fill: rgb(214, 39, 40); opacity: 1;"></path><path transform="translate(24.372333922720994,419.79480247904075)" d="M3.431831258788849,0A3.431831258788849,3.431831258788849,0,1,1,-3.431831258788849,0A3.431831258788849,3.431831258788849,0,1,1,3.431831258788849,0" class="dot symbol symbol-c color color-cCore" style="fill: rgb(214, 39, 40); opacity: 1;"></path><path transform="translate(26.957058589807833,414.69521056830183)" d="M3.431831258788849,0A3.431831258788849,3.431831258788849,0,1,1,-3.431831258788849,0A3.431831258788849,3.431831258788849,0,1,1,3.431831258788849,0" class="dot symbol symbol-c color color-cCore" style="fill: rgb(214, 39, 40); opacity: 1;"></path><path transform="translate(43.652982790720074,419.4105866501494)" d="M3.431831258788849,0A3.431831258788849,3.431831258788849,0,1,1,-3.431831258788849,0A3.431831258788849,3.431831258788849,0,1,1,3.431831258788849,0" class="dot symbol symbol-c color color-cCore" style="fill: rgb(214, 39, 40); opacity: 1;"></path><path transform="translate(46.76163813356775,414.9397115503235)" d="M3.431831258788849,0A3.431831258788849,3.431831258788849,0,1,1,-3.431831258788849,0A3.431831258788849,3.431831258788849,0,1,1,3.431831258788849,0" class="dot symbol symbol-c color color-cCore" style="fill: rgb(214, 39, 40); opacity: 1;"></path><path transform="translate(22.90532803059063,411.7262700723237)" d="M3.431831258788849,0A3.431831258788849,3.431831258788849,0,1,1,-3.431831258788849,0A3.431831258788849,3.431831258788849,0,1,1,3.431831258788849,0" class="dot symbol symbol-c color color-cCore" style="fill: rgb(214, 39, 40); opacity: 1;"></path><path transform="translate(45.85349162891562,392.23604893402035)" d="M3.431831258788849,0A3.431831258788849,3.431831258788849,0,1,1,-3.431831258788849,0A3.431831258788849,3.431831258788849,0,1,1,3.431831258788849,0" class="dot symbol symbol-c color color-cHxmath" style="fill: rgb(44, 160, 44); opacity: 1;"></path><path transform="translate(21.43832213846027,396.5322804752592)" d="M3.431831258788849,0A3.431831258788849,3.431831258788849,0,1,1,-3.431831258788849,0A3.431831258788849,3.431831258788849,0,1,1,3.431831258788849,0" class="dot symbol symbol-c color color-cHxmath" style="fill: rgb(44, 160, 44); opacity: 1;"></path><path transform="translate(43.059194691524446,413.92677891051926)" d="M3.431831258788849,0A3.431831258788849,3.431831258788849,0,1,1,-3.431831258788849,0A3.431831258788849,3.431831258788849,0,1,1,3.431831258788849,0" class="dot symbol symbol-c color color-cHxmath" style="fill: rgb(44, 160, 44); opacity: 1;"></path><path transform="translate(24.47712005787316,412.9487749824324)" d="M3.431831258788849,0A3.431831258788849,3.431831258788849,0,1,1,-3.431831258788849,0A3.431831258788849,3.431831258788849,0,1,1,3.431831258788849,0" class="dot symbol symbol-c color color-cHxmath" style="fill: rgb(44, 160, 44); opacity: 1;"></path><path transform="translate(23.045042877460187,414.41578087456276)" d="M3.431831258788849,0A3.431831258788849,3.431831258788849,0,1,1,-3.431831258788849,0A3.431831258788849,3.431831258788849,0,1,1,3.431831258788849,0" class="dot symbol symbol-c color color-cHxmath" style="fill: rgb(44, 160, 44); opacity: 1;"></path><path transform="translate(24.651763616460112,401.28258526882416)" d="M3.431831258788849,0A3.431831258788849,3.431831258788849,0,1,1,-3.431831258788849,0A3.431831258788849,3.431831258788849,0,1,1,3.431831258788849,0" class="dot symbol symbol-c color color-cHxmath" style="fill: rgb(44, 160, 44); opacity: 1;"></path><path transform="translate(24.89626459848184,398.73278931345476)" d="M3.431831258788849,0A3.431831258788849,3.431831258788849,0,1,1,-3.431831258788849,0A3.431831258788849,3.431831258788849,0,1,1,3.431831258788849,0" class="dot symbol symbol-c color color-cFormat" style="fill: rgb(255, 127, 14); opacity: 1;"></path><path transform="translate(40.823757141611516,388.2891045099552)" d="M3.431831258788849,0A3.431831258788849,3.431831258788849,0,1,1,-3.431831258788849,0A3.431831258788849,3.431831258788849,0,1,1,3.431831258788849,0" class="dot symbol symbol-c color color-cFormat" style="fill: rgb(255, 127, 14); opacity: 1;"></path><path transform="translate(44.80563027739393,414.20620860425834)" d="M3.431831258788849,0A3.431831258788849,3.431831258788849,0,1,1,-3.431831258788849,0A3.431831258788849,3.431831258788849,0,1,1,3.431831258788849,0" class="dot symbol symbol-c color color-cFormat" style="fill: rgb(255, 127, 14); opacity: 1;"></path><path transform="translate(32.23129405913366,408.40804245917167)" d="M3.431831258788849,0A3.431831258788849,3.431831258788849,0,1,1,-3.431831258788849,0A3.431831258788849,3.431831258788849,0,1,1,3.431831258788849,0" class="dot symbol symbol-c color color-cFormat" style="fill: rgb(255, 127, 14); opacity: 1;"></path><path transform="translate(17.945450966721307,383.0847264640642)" d="M3.431831258788849,0A3.431831258788849,3.431831258788849,0,1,1,-3.431831258788849,0A3.431831258788849,3.431831258788849,0,1,1,3.431831258788849,0" class="dot symbol symbol-c color color-cPromise" style="fill: rgb(148, 103, 189); opacity: 1;"></path><path transform="translate(21.473250850177656,370.09124570519526)" d="M3.431831258788849,0A3.431831258788849,3.431831258788849,0,1,1,-3.431831258788849,0A3.431831258788849,3.431831258788849,0,1,1,3.431831258788849,0" class="dot symbol symbol-c color color-cPromise" style="fill: rgb(148, 103, 189); opacity: 1;"></path><path transform="translate(16.72294605661267,315.70724156121963)" d="M3.431831258788849,0A3.431831258788849,3.431831258788849,0,1,1,-3.431831258788849,0A3.431831258788849,3.431831258788849,0,1,1,3.431831258788849,0" class="dot symbol symbol-c color color-cPromise" style="fill: rgb(148, 103, 189); opacity: 1;"></path><path transform="translate(28.214492211633857,394.5762726190854)" d="M3.431831258788849,0A3.431831258788849,3.431831258788849,0,1,1,-3.431831258788849,0A3.431831258788849,3.431831258788849,0,1,1,3.431831258788849,0" class="dot symbol symbol-c color color-cPromise" style="fill: rgb(148, 103, 189); opacity: 1;"></path><path transform="translate(22.17182508452545,419.8995886141929)" d="M3.431831258788849,0A3.431831258788849,3.431831258788849,0,1,1,-3.431831258788849,0A3.431831258788849,3.431831258788849,0,1,1,3.431831258788849,0" class="dot symbol symbol-c color color-cPromise" style="fill: rgb(148, 103, 189); opacity: 1;"></path><path transform="translate(21.927324102503718,420.52830542510594)" d="M3.431831258788849,0A3.431831258788849,3.431831258788849,0,1,1,-3.431831258788849,0A3.431831258788849,3.431831258788849,0,1,1,3.431831258788849,0" class="dot symbol symbol-c color color-cCulture" style="fill: rgb(140, 86, 75); opacity: 1;"></path><path transform="translate(22.940256742308023,421.8206677586493)" d="M3.431831258788849,0A3.431831258788849,3.431831258788849,0,1,1,-3.431831258788849,0A3.431831258788849,3.431831258788849,0,1,1,3.431831258788849,0" class="dot symbol symbol-c color color-cCulture" style="fill: rgb(140, 86, 75); opacity: 1;"></path><path transform="translate(22.800541895438464,419.7598737673233)" d="M3.431831258788849,0A3.431831258788849,3.431831258788849,0,1,1,-3.431831258788849,0A3.431831258788849,3.431831258788849,0,1,1,3.431831258788849,0" class="dot symbol symbol-c color color-cCulture" style="fill: rgb(140, 86, 75); opacity: 1;"></path><path transform="translate(26.74748631950349,435.5476514635834)" d="M3.431831258788849,0A3.431831258788849,3.431831258788849,0,1,1,-3.431831258788849,0A3.431831258788849,3.431831258788849,0,1,1,3.431831258788849,0" class="dot symbol symbol-c color color-cCulture" style="fill: rgb(140, 86, 75); opacity: 1;"></path><path transform="translate(41.522331375959304,427.93319230919246)" d="M3.431831258788849,0A3.431831258788849,3.431831258788849,0,1,1,-3.431831258788849,0A3.431831258788849,3.431831258788849,0,1,1,3.431831258788849,0" class="dot symbol symbol-c color color-cCulture" style="fill: rgb(140, 86, 75); opacity: 1;"></path><path transform="translate(243.48014252590613,243.12537861248398)" d="M3.431831258788849,0A3.431831258788849,3.431831258788849,0,1,1,-3.431831258788849,0A3.431831258788849,3.431831258788849,0,1,1,3.431831258788849,0" class="dot symbol symbol-c color color-cMath" style="fill: rgb(227, 119, 194); opacity: 1;"></path><path transform="translate(47.77457077337205,417.87372333458427)" d="M3.431831258788849,0A3.431831258788849,3.431831258788849,0,1,1,-3.431831258788849,0A3.431831258788849,3.431831258788849,0,1,1,3.431831258788849,0" class="dot symbol symbol-c color color-cMath" style="fill: rgb(227, 119, 194); opacity: 1;"></path><path transform="translate(37.750030510481224,408.26832761230213)" d="M3.431831258788849,0A3.431831258788849,3.431831258788849,0,1,1,-3.431831258788849,0A3.431831258788849,3.431831258788849,0,1,1,3.431831258788849,0" class="dot symbol symbol-c color color-cMath" style="fill: rgb(227, 119, 194); opacity: 1;"></path><path transform="translate(30.484858473264183,434.32514655347484)" d="M3.431831258788849,0A3.431831258788849,3.431831258788849,0,1,1,-3.431831258788849,0A3.431831258788849,3.431831258788849,0,1,1,3.431831258788849,0" class="dot symbol symbol-c color color-cMath" style="fill: rgb(227, 119, 194); opacity: 1;"></path><path transform="translate(552.8088134951087,479.4181133806248)" d="M3.431831258788849,0A3.431831258788849,3.431831258788849,0,1,1,-3.431831258788849,0A3.431831258788849,3.431831258788849,0,1,1,3.431831258788849,0" class="dot symbol symbol-c color color-cMath" style="fill: rgb(227, 119, 194); opacity: 1;"></path><text text-anchor="middle" class="point-label color color-cColor symbol symbol-c" transform="translate(29.57671196861205,404.0768822062154)" dx="0px" dy="-9.04138126514911px" style="font-size: 9px; fill: rgb(31, 119, 180); opacity: 1;">1</text><text text-anchor="middle" class="point-label color color-cColor symbol symbol-c" transform="translate(27.376203130416506,408.5128285943239)" dx="0px" dy="-9.04138126514911px" style="font-size: 9px; fill: rgb(31, 119, 180); opacity: 1;">2</text><text text-anchor="middle" class="point-label color color-cColor symbol symbol-c" transform="translate(28.144634788199077,424.4053924257361)" dx="0px" dy="-9.04138126514911px" style="font-size: 9px; fill: rgb(31, 119, 180); opacity: 1;">3</text><text text-anchor="middle" class="point-label color color-cColor symbol symbol-c" transform="translate(30.310214914677235,422.9383865336058)" dx="0px" dy="-9.04138126514911px" style="font-size: 9px; fill: rgb(31, 119, 180); opacity: 1;">4</text><text text-anchor="middle" class="point-label color color-cColor symbol symbol-c" transform="translate(28.52885061709036,424.5451072726057)" dx="0px" dy="-9.04138126514911px" style="font-size: 9px; fill: rgb(31, 119, 180); opacity: 1;">5</text><text text-anchor="middle" class="point-label color color-cColor symbol symbol-c" transform="translate(86.16122495078325,431.04184765204013)" dx="0px" dy="-9.04138126514911px" style="font-size: 9px; fill: rgb(31, 119, 180); opacity: 1;">6</text><text text-anchor="middle" class="point-label color color-cColor symbol symbol-c" transform="translate(26.74748631950349,409.59561865756297)" dx="0px" dy="-9.04138126514911px" style="font-size: 9px; fill: rgb(31, 119, 180); opacity: 1;">7</text><text text-anchor="middle" class="point-label color color-cColor symbol symbol-c" transform="translate(26.0489120851557,410.6085512973673)" dx="0px" dy="-9.04138126514911px" style="font-size: 9px; fill: rgb(31, 119, 180); opacity: 1;">8</text><text text-anchor="middle" class="point-label color color-cColor symbol symbol-c" transform="translate(29.262353563155546,408.96690184664993)" dx="0px" dy="-9.04138126514911px" style="font-size: 9px; fill: rgb(31, 119, 180); opacity: 1;">9</text><text text-anchor="middle" class="point-label color color-cColor symbol symbol-c" transform="translate(23.079971589177582,412.35498688323673)" dx="0px" dy="-9.04138126514911px" style="font-size: 9px; fill: rgb(31, 119, 180); opacity: 1;">10</text><text text-anchor="middle" class="point-label color color-cColor symbol symbol-c" transform="translate(24.82640717504706,416.26700259558436)" dx="0px" dy="-9.04138126514911px" style="font-size: 9px; fill: rgb(31, 119, 180); opacity: 1;">11</text><text text-anchor="middle" class="point-label color color-cColor symbol symbol-c" transform="translate(23.079971589177582,422.2048835875406)" dx="0px" dy="-9.04138126514911px" style="font-size: 9px; fill: rgb(31, 119, 180); opacity: 1;">12</text><text text-anchor="middle" class="point-label color color-cColor symbol symbol-c" transform="translate(27.411131842133894,417.94358075801904)" dx="0px" dy="-9.04138126514911px" style="font-size: 9px; fill: rgb(31, 119, 180); opacity: 1;">13</text><text text-anchor="middle" class="point-label color color-cColor symbol symbol-c" transform="translate(30.58964460841635,399.78065066497646)" dx="0px" dy="-9.04138126514911px" style="font-size: 9px; fill: rgb(31, 119, 180); opacity: 1;">14</text><text text-anchor="middle" class="point-label color color-cColor symbol symbol-c" transform="translate(29.297282274872934,411.1674106848455)" dx="0px" dy="-9.04138126514911px" style="font-size: 9px; fill: rgb(31, 119, 180); opacity: 1;">15</text><text text-anchor="middle" class="point-label color color-cColor symbol symbol-c" transform="translate(25.245551715655736,410.503765162215)" dx="0px" dy="-9.04138126514911px" style="font-size: 9px; fill: rgb(31, 119, 180); opacity: 1;">16</text><text text-anchor="middle" class="point-label color color-cColor symbol symbol-c" transform="translate(26.398199202329597,419.8297311907581)" dx="0px" dy="-9.04138126514911px" style="font-size: 9px; fill: rgb(31, 119, 180); opacity: 1;">17</text><text text-anchor="middle" class="point-label color color-cColor symbol symbol-c" transform="translate(26.81734374293827,420.5632341368233)" dx="0px" dy="-9.04138126514911px" style="font-size: 9px; fill: rgb(31, 119, 180); opacity: 1;">18</text><text text-anchor="middle" class="point-label color color-cColor symbol symbol-c" transform="translate(84.51957550006594,412.32005817151935)" dx="0px" dy="-9.04138126514911px" style="font-size: 9px; fill: rgb(31, 119, 180); opacity: 1;">19</text><text text-anchor="middle" class="point-label color color-cCore symbol symbol-c" transform="translate(24.512048769590557,404.4261693233893)" dx="0px" dy="-9.04138126514911px" style="font-size: 9px; fill: rgb(214, 39, 40); opacity: 1;">20</text><text text-anchor="middle" class="point-label color color-cCore symbol symbol-c" transform="translate(22.24168250796023,425.13889537180137)" dx="0px" dy="-9.04138126514911px" style="font-size: 9px; fill: rgb(214, 39, 40); opacity: 1;">21</text><text text-anchor="middle" class="point-label color color-cCore symbol symbol-c" transform="translate(25.490052697677466,418.0832956048886)" dx="0px" dy="-9.04138126514911px" style="font-size: 9px; fill: rgb(214, 39, 40); opacity: 1;">22</text><text text-anchor="middle" class="point-label color color-cCore symbol symbol-c" transform="translate(57.240251648784636,337.18839926741424)" dx="0px" dy="-9.04138126514911px" style="font-size: 9px; fill: rgb(214, 39, 40); opacity: 1;">23</text><text text-anchor="middle" class="point-label color color-cCore symbol symbol-c" transform="translate(28.354207058503416,399.25671998921564)" dx="0px" dy="-9.04138126514911px" style="font-size: 9px; fill: rgb(214, 39, 40); opacity: 1;">24</text><text text-anchor="middle" class="point-label color color-cCore symbol symbol-c" transform="translate(34.920804861372666,368.4146675427606)" dx="0px" dy="-9.04138126514911px" style="font-size: 9px; fill: rgb(214, 39, 40); opacity: 1;">25</text><text text-anchor="middle" class="point-label color color-cCore symbol symbol-c" transform="translate(21.508179561895048,416.1272877487148)" dx="0px" dy="-9.04138126514911px" style="font-size: 9px; fill: rgb(214, 39, 40); opacity: 1;">26</text><text text-anchor="middle" class="point-label color color-cCore symbol symbol-c" transform="translate(27.900133806177347,425.41832506554044)" dx="0px" dy="-9.04138126514911px" style="font-size: 9px; fill: rgb(214, 39, 40); opacity: 1;">27</text><text text-anchor="middle" class="point-label color color-cCore symbol symbol-c" transform="translate(25.14076558050357,368.0304517138693)" dx="0px" dy="-9.04138126514911px" style="font-size: 9px; fill: rgb(214, 39, 40); opacity: 1;">28</text><text text-anchor="middle" class="point-label color color-cCore symbol symbol-c" transform="translate(49.695649917828476,433.80121587771396)" dx="0px" dy="-9.04138126514911px" style="font-size: 9px; fill: rgb(214, 39, 40); opacity: 1;">29</text><text text-anchor="middle" class="point-label color color-cCore symbol symbol-c" transform="translate(47.739642061654656,220.98057538365896)" dx="0px" dy="-9.04138126514911px" style="font-size: 9px; fill: rgb(214, 39, 40); opacity: 1;">30</text><text text-anchor="middle" class="point-label color color-cCore symbol symbol-c" transform="translate(45.53913322345911,204.21479375931193)" dx="0px" dy="-9.04138126514911px" style="font-size: 9px; fill: rgb(214, 39, 40); opacity: 1;">31</text><text text-anchor="middle" class="point-label color color-cCore symbol symbol-c" transform="translate(54.09666759421956,411.4119116668672)" dx="0px" dy="-9.04138126514911px" style="font-size: 9px; fill: rgb(214, 39, 40); opacity: 1;">32</text><text text-anchor="middle" class="point-label color color-cCore symbol symbol-c" transform="translate(25.524981409394854,402.155803061759)" dx="0px" dy="-9.04138126514911px" style="font-size: 9px; fill: rgb(214, 39, 40); opacity: 1;">33</text><text text-anchor="middle" class="point-label color color-cCore symbol symbol-c" transform="translate(25.10583686878618,429.67962789506197)" dx="0px" dy="-9.04138126514911px" style="font-size: 9px; fill: rgb(214, 39, 40); opacity: 1;">34</text><text text-anchor="middle" class="point-label color color-cCore symbol symbol-c" transform="translate(24.023046805547096,410.57362258564984)" dx="0px" dy="-9.04138126514911px" style="font-size: 9px; fill: rgb(214, 39, 40); opacity: 1;">35</text><text text-anchor="middle" class="point-label color color-cCore symbol symbol-c" transform="translate(30.170500067807676,411.0626245496933)" dx="0px" dy="-9.04138126514911px" style="font-size: 9px; fill: rgb(214, 39, 40); opacity: 1;">36</text><text text-anchor="middle" class="point-label color color-cCore symbol symbol-c" transform="translate(24.09290422898188,411.97077105434545)" dx="0px" dy="-9.04138126514911px" style="font-size: 9px; fill: rgb(214, 39, 40); opacity: 1;">37</text><text text-anchor="middle" class="point-label color color-cCore symbol symbol-c" transform="translate(22.695755760286293,343.09135154765306)" dx="0px" dy="-9.04138126514911px" style="font-size: 9px; fill: rgb(214, 39, 40); opacity: 1;">38</text><text text-anchor="middle" class="point-label color color-cCore symbol symbol-c" transform="translate(26.0489120851557,429.85427145364895)" dx="0px" dy="-9.04138126514911px" style="font-size: 9px; fill: rgb(214, 39, 40); opacity: 1;">39</text><text text-anchor="middle" class="point-label color color-cCore symbol symbol-c" transform="translate(23.603902264938423,399.3964348360852)" dx="0px" dy="-9.04138126514911px" style="font-size: 9px; fill: rgb(214, 39, 40); opacity: 1;">40</text><text text-anchor="middle" class="point-label color color-cCore symbol symbol-c" transform="translate(24.197690364134047,386.7871699061075)" dx="0px" dy="-9.04138126514911px" style="font-size: 9px; fill: rgb(214, 39, 40); opacity: 1;">41</text><text text-anchor="middle" class="point-label color color-cCore symbol symbol-c" transform="translate(23.045042877460187,407.0458227021935)" dx="0px" dy="-9.04138126514911px" style="font-size: 9px; fill: rgb(214, 39, 40); opacity: 1;">42</text><text text-anchor="middle" class="point-label color color-cCore symbol symbol-c" transform="translate(33.41887025752491,434.25528913004)" dx="0px" dy="-9.04138126514911px" style="font-size: 9px; fill: rgb(214, 39, 40); opacity: 1;">43</text><text text-anchor="middle" class="point-label color color-cCore symbol symbol-c" transform="translate(27.201559571829552,405.8582465038022)" dx="0px" dy="-9.04138126514911px" style="font-size: 9px; fill: rgb(214, 39, 40); opacity: 1;">44</text><text text-anchor="middle" class="point-label color color-cCore symbol symbol-c" transform="translate(26.991987301525217,417.7689371994321)" dx="0px" dy="-9.04138126514911px" style="font-size: 9px; fill: rgb(214, 39, 40); opacity: 1;">45</text><text text-anchor="middle" class="point-label color color-cCore symbol symbol-c" transform="translate(37.68017308704644,429.67962789506197)" dx="0px" dy="-9.04138126514911px" style="font-size: 9px; fill: rgb(214, 39, 40); opacity: 1;">46</text><text text-anchor="middle" class="point-label color color-cCore symbol symbol-c" transform="translate(26.57284276091654,417.34979265882345)" dx="0px" dy="-9.04138126514911px" style="font-size: 9px; fill: rgb(214, 39, 40); opacity: 1;">47</text><text text-anchor="middle" class="point-label color color-cCore symbol symbol-c" transform="translate(25.594838832829634,420.3187331548016)" dx="0px" dy="-9.04138126514911px" style="font-size: 9px; fill: rgb(214, 39, 40); opacity: 1;">48</text><text text-anchor="middle" class="point-label color color-cCore symbol symbol-c" transform="translate(25.490052697677466,411.79612749575847)" dx="0px" dy="-9.04138126514911px" style="font-size: 9px; fill: rgb(214, 39, 40); opacity: 1;">49</text><text text-anchor="middle" class="point-label color color-cCore symbol symbol-c" transform="translate(28.947995157699037,413.1932759644541)" dx="0px" dy="-9.04138126514911px" style="font-size: 9px; fill: rgb(214, 39, 40); opacity: 1;">50</text><text text-anchor="middle" class="point-label color color-cCore symbol symbol-c" transform="translate(42.98933726808967,434.88400594095305)" dx="0px" dy="-9.04138126514911px" style="font-size: 9px; fill: rgb(214, 39, 40); opacity: 1;">51</text><text text-anchor="middle" class="point-label color color-cCore symbol symbol-c" transform="translate(23.918260670394933,416.3368600190191)" dx="0px" dy="-9.04138126514911px" style="font-size: 9px; fill: rgb(214, 39, 40); opacity: 1;">52</text><text text-anchor="middle" class="point-label color color-cCore symbol symbol-c" transform="translate(25.629767544547022,415.91771547841046)" dx="0px" dy="-9.04138126514911px" style="font-size: 9px; fill: rgb(214, 39, 40); opacity: 1;">53</text><text text-anchor="middle" class="point-label color color-cCore symbol symbol-c" transform="translate(24.86133588676445,410.71333743251944)" dx="0px" dy="-9.04138126514911px" style="font-size: 9px; fill: rgb(214, 39, 40); opacity: 1;">54</text><text text-anchor="middle" class="point-label color color-cCore symbol symbol-c" transform="translate(25.00105073363401,417.8038659111495)" dx="0px" dy="-9.04138126514911px" style="font-size: 9px; fill: rgb(214, 39, 40); opacity: 1;">55</text><text text-anchor="middle" class="point-label color color-cCore symbol symbol-c" transform="translate(27.166630860112168,411.65641264888893)" dx="0px" dy="-9.04138126514911px" style="font-size: 9px; fill: rgb(214, 39, 40); opacity: 1;">56</text><text text-anchor="middle" class="point-label color color-cCore symbol symbol-c" transform="translate(30.205428779525064,413.8918501988019)" dx="0px" dy="-9.04138126514911px" style="font-size: 9px; fill: rgb(214, 39, 40); opacity: 1;">57</text><text text-anchor="middle" class="point-label color color-cCore symbol symbol-c" transform="translate(22.17182508452545,421.89052518208405)" dx="0px" dy="-9.04138126514911px" style="font-size: 9px; fill: rgb(214, 39, 40); opacity: 1;">58</text><text text-anchor="middle" class="point-label color color-cCore symbol symbol-c" transform="translate(31.986793077111933,432.0547802918445)" dx="0px" dy="-9.04138126514911px" style="font-size: 9px; fill: rgb(214, 39, 40); opacity: 1;">59</text><text text-anchor="middle" class="point-label color color-cCore symbol symbol-c" transform="translate(26.398199202329597,397.8945002322374)" dx="0px" dy="-9.04138126514911px" style="font-size: 9px; fill: rgb(214, 39, 40); opacity: 1;">60</text><text text-anchor="middle" class="point-label color color-cCore symbol symbol-c" transform="translate(26.468056625764376,411.9009136309106)" dx="0px" dy="-9.04138126514911px" style="font-size: 9px; fill: rgb(214, 39, 40); opacity: 1;">61</text><text text-anchor="middle" class="point-label color color-cCore symbol symbol-c" transform="translate(26.607771472633935,421.47138064147543)" dx="0px" dy="-9.04138126514911px" style="font-size: 9px; fill: rgb(214, 39, 40); opacity: 1;">62</text><text text-anchor="middle" class="point-label color color-cCore symbol symbol-c" transform="translate(26.293413067177422,413.8219927753671)" dx="0px" dy="-9.04138126514911px" style="font-size: 9px; fill: rgb(214, 39, 40); opacity: 1;">63</text><text text-anchor="middle" class="point-label color color-cCore symbol symbol-c" transform="translate(21.29860729159071,418.9565133978234)" dx="0px" dy="-9.04138126514911px" style="font-size: 9px; fill: rgb(214, 39, 40); opacity: 1;">64</text><text text-anchor="middle" class="point-label color color-cCore symbol symbol-c" transform="translate(28.77335159911209,412.21527203636714)" dx="0px" dy="-9.04138126514911px" style="font-size: 9px; fill: rgb(214, 39, 40); opacity: 1;">65</text><text text-anchor="middle" class="point-label color color-cCore symbol symbol-c" transform="translate(24.372333922720994,419.79480247904075)" dx="0px" dy="-9.04138126514911px" style="font-size: 9px; fill: rgb(214, 39, 40); opacity: 1;">66</text><text text-anchor="middle" class="point-label color color-cCore symbol symbol-c" transform="translate(26.957058589807833,414.69521056830183)" dx="0px" dy="-9.04138126514911px" style="font-size: 9px; fill: rgb(214, 39, 40); opacity: 1;">67</text><text text-anchor="middle" class="point-label color color-cCore symbol symbol-c" transform="translate(43.652982790720074,419.4105866501494)" dx="0px" dy="-9.04138126514911px" style="font-size: 9px; fill: rgb(214, 39, 40); opacity: 1;">68</text><text text-anchor="middle" class="point-label color color-cCore symbol symbol-c" transform="translate(46.76163813356775,414.9397115503235)" dx="0px" dy="-9.04138126514911px" style="font-size: 9px; fill: rgb(214, 39, 40); opacity: 1;">69</text><text text-anchor="middle" class="point-label color color-cCore symbol symbol-c" transform="translate(22.90532803059063,411.7262700723237)" dx="0px" dy="-9.04138126514911px" style="font-size: 9px; fill: rgb(214, 39, 40); opacity: 1;">70</text><text text-anchor="middle" class="point-label color color-cHxmath symbol symbol-c" transform="translate(45.85349162891562,392.23604893402035)" dx="0px" dy="-9.04138126514911px" style="font-size: 9px; fill: rgb(44, 160, 44); opacity: 1;">71</text><text text-anchor="middle" class="point-label color color-cHxmath symbol symbol-c" transform="translate(21.43832213846027,396.5322804752592)" dx="0px" dy="-9.04138126514911px" style="font-size: 9px; fill: rgb(44, 160, 44); opacity: 1;">72</text><text text-anchor="middle" class="point-label color color-cHxmath symbol symbol-c" transform="translate(43.059194691524446,413.92677891051926)" dx="0px" dy="-9.04138126514911px" style="font-size: 9px; fill: rgb(44, 160, 44); opacity: 1;">73</text><text text-anchor="middle" class="point-label color color-cHxmath symbol symbol-c" transform="translate(24.47712005787316,412.9487749824324)" dx="0px" dy="-9.04138126514911px" style="font-size: 9px; fill: rgb(44, 160, 44); opacity: 1;">74</text><text text-anchor="middle" class="point-label color color-cHxmath symbol symbol-c" transform="translate(23.045042877460187,414.41578087456276)" dx="0px" dy="-9.04138126514911px" style="font-size: 9px; fill: rgb(44, 160, 44); opacity: 1;">75</text><text text-anchor="middle" class="point-label color color-cHxmath symbol symbol-c" transform="translate(24.651763616460112,401.28258526882416)" dx="0px" dy="-9.04138126514911px" style="font-size: 9px; fill: rgb(44, 160, 44); opacity: 1;">76</text><text text-anchor="middle" class="point-label color color-cFormat symbol symbol-c" transform="translate(24.89626459848184,398.73278931345476)" dx="0px" dy="-9.04138126514911px" style="font-size: 9px; fill: rgb(255, 127, 14); opacity: 1;">77</text><text text-anchor="middle" class="point-label color color-cFormat symbol symbol-c" transform="translate(40.823757141611516,388.2891045099552)" dx="0px" dy="-9.04138126514911px" style="font-size: 9px; fill: rgb(255, 127, 14); opacity: 1;">78</text><text text-anchor="middle" class="point-label color color-cFormat symbol symbol-c" transform="translate(44.80563027739393,414.20620860425834)" dx="0px" dy="-9.04138126514911px" style="font-size: 9px; fill: rgb(255, 127, 14); opacity: 1;">79</text><text text-anchor="middle" class="point-label color color-cFormat symbol symbol-c" transform="translate(32.23129405913366,408.40804245917167)" dx="0px" dy="-9.04138126514911px" style="font-size: 9px; fill: rgb(255, 127, 14); opacity: 1;">80</text><text text-anchor="middle" class="point-label color color-cPromise symbol symbol-c" transform="translate(17.945450966721307,383.0847264640642)" dx="0px" dy="-9.04138126514911px" style="font-size: 9px; fill: rgb(148, 103, 189); opacity: 1;">81</text><text text-anchor="middle" class="point-label color color-cPromise symbol symbol-c" transform="translate(21.473250850177656,370.09124570519526)" dx="0px" dy="-9.04138126514911px" style="font-size: 9px; fill: rgb(148, 103, 189); opacity: 1;">82</text><text text-anchor="middle" class="point-label color color-cPromise symbol symbol-c" transform="translate(16.72294605661267,315.70724156121963)" dx="0px" dy="-9.04138126514911px" style="font-size: 9px; fill: rgb(148, 103, 189); opacity: 1;">83</text><text text-anchor="middle" class="point-label color color-cPromise symbol symbol-c" transform="translate(28.214492211633857,394.5762726190854)" dx="0px" dy="-9.04138126514911px" style="font-size: 9px; fill: rgb(148, 103, 189); opacity: 1;">84</text><text text-anchor="middle" class="point-label color color-cPromise symbol symbol-c" transform="translate(22.17182508452545,419.8995886141929)" dx="0px" dy="-9.04138126514911px" style="font-size: 9px; fill: rgb(148, 103, 189); opacity: 1;">85</text><text text-anchor="middle" class="point-label color color-cCulture symbol symbol-c" transform="translate(21.927324102503718,420.52830542510594)" dx="0px" dy="-9.04138126514911px" style="font-size: 9px; fill: rgb(140, 86, 75); opacity: 1;">86</text><text text-anchor="middle" class="point-label color color-cCulture symbol symbol-c" transform="translate(22.940256742308023,421.8206677586493)" dx="0px" dy="-9.04138126514911px" style="font-size: 9px; fill: rgb(140, 86, 75); opacity: 1;">87</text><text text-anchor="middle" class="point-label color color-cCulture symbol symbol-c" transform="translate(22.800541895438464,419.7598737673233)" dx="0px" dy="-9.04138126514911px" style="font-size: 9px; fill: rgb(140, 86, 75); opacity: 1;">88</text><text text-anchor="middle" class="point-label color color-cCulture symbol symbol-c" transform="translate(26.74748631950349,435.5476514635834)" dx="0px" dy="-9.04138126514911px" style="font-size: 9px; fill: rgb(140, 86, 75); opacity: 1;">89</text><text text-anchor="middle" class="point-label color color-cCulture symbol symbol-c" transform="translate(41.522331375959304,427.93319230919246)" dx="0px" dy="-9.04138126514911px" style="font-size: 9px; fill: rgb(140, 86, 75); opacity: 1;">90</text><text text-anchor="middle" class="point-label color color-cMath symbol symbol-c" transform="translate(243.48014252590613,243.12537861248398)" dx="0px" dy="-9.04138126514911px" style="font-size: 9px; fill: rgb(227, 119, 194); opacity: 1;">91</text><text text-anchor="middle" class="point-label color color-cMath symbol symbol-c" transform="translate(47.77457077337205,417.87372333458427)" dx="0px" dy="-9.04138126514911px" style="font-size: 9px; fill: rgb(227, 119, 194); opacity: 1;">92</text><text text-anchor="middle" class="point-label color color-cMath symbol symbol-c" transform="translate(37.750030510481224,408.26832761230213)" dx="0px" dy="-9.04138126514911px" style="font-size: 9px; fill: rgb(227, 119, 194); opacity: 1;">93</text><text text-anchor="middle" class="point-label color color-cMath symbol symbol-c" transform="translate(30.484858473264183,434.32514655347484)" dx="0px" dy="-9.04138126514911px" style="font-size: 9px; fill: rgb(227, 119, 194); opacity: 1;">94</text><text text-anchor="middle" class="point-label color color-cMath symbol symbol-c" transform="translate(552.8088134951087,479.4181133806248)" dx="0px" dy="-9.04138126514911px" style="font-size: 9px; fill: rgb(227, 119, 194); opacity: 1;">95</text></svg></g><defs><marker id="arrow-head-explor_ind-#1f77b4" markerWidth="10" markerHeight="10" refX="10" refY="4" orient="auto"><path d="M0,0 L0,8 L10,4 L0,0" style="fill: rgb(31, 119, 180);"></path></marker><marker id="arrow-head-explor_ind-#d62728" markerWidth="10" markerHeight="10" refX="10" refY="4" orient="auto"><path d="M0,0 L0,8 L10,4 L0,0" style="fill: rgb(214, 39, 40);"></path></marker><marker id="arrow-head-explor_ind-#2ca02c" markerWidth="10" markerHeight="10" refX="10" refY="4" orient="auto"><path d="M0,0 L0,8 L10,4 L0,0" style="fill: rgb(44, 160, 44);"></path></marker><marker id="arrow-head-explor_ind-#ff7f0e" markerWidth="10" markerHeight="10" refX="10" refY="4" orient="auto"><path d="M0,0 L0,8 L10,4 L0,0" style="fill: rgb(255, 127, 14);"></path></marker><marker id="arrow-head-explor_ind-#9467bd" markerWidth="10" markerHeight="10" refX="10" refY="4" orient="auto"><path d="M0,0 L0,8 L10,4 L0,0" style="fill: rgb(148, 103, 189);"></path></marker><marker id="arrow-head-explor_ind-#8c564b" markerWidth="10" markerHeight="10" refX="10" refY="4" orient="auto"><path d="M0,0 L0,8 L10,4 L0,0" style="fill: rgb(140, 86, 75);"></path></marker><marker id="arrow-head-explor_ind-#e377c2" markerWidth="10" markerHeight="10" refX="10" refY="4" orient="auto"><path d="M0,0 L0,8 L10,4 L0,0" style="fill: rgb(227, 119, 194);"></path></marker><marker id="arrow-head-explor_ind-#7f7f7f" markerWidth="10" markerHeight="10" refX="10" refY="4" orient="auto"><path d="M0,0 L0,8 L10,4 L0,0" style="fill: rgb(127, 127, 127);"></path></marker><marker id="arrow-head-explor_ind-#bcbd22" markerWidth="10" markerHeight="10" refX="10" refY="4" orient="auto"><path d="M0,0 L0,8 L10,4 L0,0" style="fill: rgb(188, 189, 34);"></path></marker><marker id="arrow-head-explor_ind-#17becf" markerWidth="10" markerHeight="10" refX="10" refY="4" orient="auto"><path d="M0,0 L0,8 L10,4 L0,0" style="fill: rgb(23, 190, 207);"></path></marker></defs><g class="legend" style="font-size: 100%;"><g class="color-legend-label" transform="translate(622, 50)" style="opacity: 1;"><text style="fill: rgb(0, 0, 0); font-weight: bold;">Bench</text></g><g class="color-legend" transform="translate(622, 62)" style="opacity: 1;"><g class="legendCells"><g class="cell" transform="translate(0, 0)"><rect class="swatch" height="15" width="15" style="fill: rgb(31, 119, 180);"></rect><text class="label" transform="translate(25,12.5)">Color</text></g><g class="cell" transform="translate(0, 18)"><rect class="swatch" height="15" width="15" style="fill: rgb(214, 39, 40);"></rect><text class="label" transform="translate(25,12.5)">Core</text></g><g class="cell" transform="translate(0, 36)"><rect class="swatch" height="15" width="15" style="fill: rgb(140, 86, 75);"></rect><text class="label" transform="translate(25,12.5)">Culture</text></g><g class="cell" transform="translate(0, 54)"><rect class="swatch" height="15" width="15" style="fill: rgb(255, 127, 14);"></rect><text class="label" transform="translate(25,12.5)">Format</text></g><g class="cell" transform="translate(0, 72)"><rect class="swatch" height="15" width="15" style="fill: rgb(44, 160, 44);"></rect><text class="label" transform="translate(25,12.5)">Hxmath</text></g><g class="cell" transform="translate(0, 90)"><rect class="swatch" height="15" width="15" style="fill: rgb(227, 119, 194);"></rect><text class="label" transform="translate(25,12.5)">Math</text></g><g class="cell" transform="translate(0, 108)"><rect class="swatch" height="15" width="15" style="fill: rgb(148, 103, 189);"></rect><text class="label" transform="translate(25,12.5)">Promise</text></g></g></g></g></svg>